<?xml version="1.0" standalone="no"?>
<!DOCTYPE svg PUBLIC "-//W3C//DTD SVG 20010904//EN"
 "http://www.w3.org/TR/2001/REC-SVG-20010904/DTD/svg10.dtd">
<svg version="1.0" xmlns="http://www.w3.org/2000/svg"
 width="777.000000pt" height="387.000000pt" viewBox="0 0 777.000000 387.000000"
 preserveAspectRatio="xMidYMid meet">

<g transform="translate(0.000000,387.000000) scale(0.100000,-0.100000)"
fill="#000000" stroke="none">
<path d="M4060 3394 c-36 -7 -110 -36 -165 -64 l-100 -50 -173 0 c-145 0 -174
-2 -178 -15 -4 -8 -1 -22 6 -30 10 -12 40 -15 147 -15 l134 0 -46 -57 c-26
-31 -55 -74 -66 -95 l-19 -38 -179 0 c-99 0 -186 -3 -195 -6 -21 -8 -21 -50 0
-58 9 -3 59 -6 111 -6 l96 0 -72 -36 c-41 -20 -100 -62 -136 -95 l-63 -59
-125 0 c-69 0 -132 -3 -141 -6 -9 -3 -16 -16 -16 -29 0 -30 21 -35 143 -35
l97 0 -19 -37 c-10 -21 -27 -64 -37 -95 l-18 -58 -150 0 c-83 0 -157 -4 -164
-9 -8 -5 -12 -17 -10 -27 3 -17 16 -19 156 -22 110 -2 154 -6 157 -15 2 -6 6
-51 9 -99 l5 -87 -107 -3 c-107 -3 -107 -3 -107 -28 l0 -25 117 -3 118 -3 26
-52 c15 -29 42 -73 61 -99 l34 -47 -98 -3 c-97 -3 -98 -3 -98 -28 l0 -25 134
-3 c127 -2 135 -4 164 -28 16 -14 56 -38 88 -55 189 -95 434 -73 608 55 39 29
50 33 66 23 66 -36 239 -48 338 -22 32 8 112 40 180 70 215 97 381 206 541
357 118 110 128 134 93 212 -46 99 -183 207 -293 230 -29 7 -32 10 -38 62 -16
136 -90 281 -198 386 -156 152 -398 220 -618 172z m295 -79 c130 -34 258 -118
329 -214 71 -96 125 -249 126 -352 0 -36 0 -36 49 -42 28 -3 76 -18 108 -33
60 -29 163 -122 163 -147 0 -20 -63 -29 -119 -16 -58 13 -103 43 -134 91 l-24
38 -80 -83 c-140 -146 -285 -344 -380 -517 -36 -66 -40 -70 -81 -76 -64 -10
-145 3 -227 35 l-74 28 -23 -24 c-89 -95 -269 -153 -412 -132 -92 13 -152 35
-228 86 -152 100 -229 248 -230 438 -1 92 11 143 55 235 75 153 262 279 419
280 36 0 37 1 77 85 74 152 222 274 386 320 69 19 228 18 300 0z m560 -856
c25 -14 65 -24 108 -27 37 -3 67 -6 67 -8 0 -1 -25 -27 -56 -55 -125 -119
-293 -232 -467 -314 -52 -25 -97 -45 -100 -45 -24 0 212 333 313 443 50 55 54
57 74 42 11 -8 39 -25 61 -36z"/>
<path d="M4345 2935 c-24 -23 -25 -30 -25 -148 0 -176 -4 -172 178 -172 188 0
182 -6 182 171 0 131 0 133 -26 153 -24 19 -40 21 -156 21 -124 0 -130 -1
-153 -25z"/>
<path d="M3823 2925 c-3 -9 -1 -21 4 -26 5 -5 90 -8 204 -7 186 3 194 4 194
23 0 19 -8 20 -198 23 -173 2 -198 0 -204 -13z"/>
<path d="M4000 2710 c-167 -5 -175 -6 -175 -25 0 -19 7 -20 200 -20 196 0 200
0 203 21 4 29 -12 30 -228 24z"/>
<path d="M3423 2694 c-10 -26 9 -33 102 -34 141 -2 135 -3 135 25 l0 25 -115
0 c-96 0 -117 -3 -122 -16z"/>
<path d="M3314 2465 c-4 -8 -4 -22 0 -30 5 -13 52 -15 368 -13 l363 3 0 25 0
25 -363 3 c-316 2 -363 0 -368 -13z"/>
<path d="M4207 2473 c-13 -12 -7 -41 9 -47 9 -3 62 -6 119 -6 107 0 132 9 119
44 -5 13 -24 16 -123 16 -65 0 -121 -3 -124 -7z"/>
<path d="M3611 2236 c-6 -7 -9 -21 -5 -30 5 -14 39 -16 320 -16 272 0 315 2
320 15 4 8 1 22 -6 30 -18 21 -611 22 -629 1z"/>
<path d="M3322 2231 c-8 -4 -12 -17 -10 -27 3 -17 13 -19 93 -19 89 0 90 0 90
25 0 24 -2 25 -80 28 -44 1 -86 -2 -93 -7z"/>
<path d="M3224 3265 c-13 -32 4 -45 54 -45 52 0 79 18 68 45 -8 21 -114 21
-122 0z"/>
<path d="M2984 3005 c-11 -27 16 -45 67 -45 49 0 72 18 62 48 -7 19 -122 16
-129 -3z"/>
<path d="M2654 2745 c-12 -29 16 -46 70 -43 47 3 51 5 54 31 3 27 3 27 -58 27
-45 0 -62 -4 -66 -15z"/>
<path d="M2497 2488 c-10 -30 13 -48 62 -48 51 0 78 18 67 45 -7 19 -122 22
-129 3z"/>
<path d="M2618 2239 c-41 -23 -7 -59 56 -59 28 0 66 20 66 35 0 2 -7 11 -16
19 -17 18 -80 21 -106 5z"/>
<path d="M2783 1983 c-23 -9 -15 -52 11 -59 65 -16 126 15 97 50 -13 15 -79
21 -108 9z"/>
<path d="M3124 1713 c-12 -2 -34 -17 -49 -33 -22 -23 -29 -42 -33 -83 -5 -68
16 -113 63 -133 48 -20 62 -18 34 5 -22 18 -24 26 -24 116 0 90 2 98 24 116
13 10 19 18 15 18 -5 -1 -19 -4 -30 -6z"/>
<path d="M3193 1710 c10 -7 27 -26 38 -43 l19 -32 0 38 c0 30 -4 37 -19 37
-11 0 -28 3 -38 6 -17 5 -17 5 0 -6z"/>
<path d="M4492 1605 c4 -126 16 -145 94 -151 27 -1 38 -1 24 2 -43 9 -50 30
-50 146 l0 108 -36 0 -36 0 4 -105z"/>
<path d="M4684 1620 c0 -52 1 -74 3 -47 2 26 2 68 0 95 -2 26 -3 4 -3 -48z"/>
<path d="M3758 1683 c-24 -6 -28 -27 -24 -122 3 -67 8 -88 22 -98 21 -15 64
-17 64 -3 0 6 -4 10 -10 10 -6 0 -10 43 -10 110 0 114 0 114 -42 103z"/>
<path d="M4288 1683 c-19 -5 -20 -11 -18 -133 1 -81 12 -100 57 -100 24 0 31
14 12 25 -6 4 -10 37 -9 78 3 146 4 142 -42 130z"/>
<path d="M3335 1620 c-33 -13 -48 -38 -48 -81 0 -45 21 -72 63 -84 20 -6 23
-5 13 6 -17 17 -17 141 -1 157 14 14 3 15 -27 2z"/>
<path d="M3388 1624 c16 -8 17 -164 0 -164 -6 0 -8 -3 -5 -6 13 -13 66 19 77
47 14 32 6 91 -13 107 -7 6 -26 13 -42 16 -17 3 -24 3 -17 0z"/>
<path d="M3505 1540 l0 -90 35 0 35 0 -3 59 c-4 62 9 101 33 101 12 0 15 -16
15 -80 l0 -80 34 0 34 0 -2 76 c-1 62 -5 79 -21 90 -24 18 -45 18 -73 -2 -20
-14 -22 -14 -22 0 0 11 -10 16 -32 16 l-33 0 0 -90z"/>
<path d="M3903 1620 c-16 -6 -23 -18 -23 -35 0 -20 5 -25 25 -25 28 0 45 27
25 40 -7 4 -9 13 -6 19 8 13 8 13 -21 1z"/>
<path d="M3960 1611 c5 -11 10 -31 10 -44 0 -22 -6 -26 -47 -33 -40 -8 -49
-13 -51 -34 -4 -26 20 -50 49 -50 12 0 16 9 15 37 -1 28 3 38 17 41 13 3 17
-3 17 -25 0 -16 5 -34 12 -41 15 -15 54 -16 63 -2 3 6 1 10 -4 10 -7 0 -11 26
-11 64 0 56 -3 67 -22 80 -12 9 -31 16 -41 16 -14 0 -16 -4 -7 -19z"/>
<path d="M4120 1617 c-28 -14 -50 -51 -50 -85 0 -33 52 -82 86 -82 l28 0 -22
16 c-18 13 -22 25 -22 74 0 40 5 64 16 74 19 20 1 22 -36 3z"/>
<path d="M4185 1593 c0 -44 27 -58 45 -24 8 17 7 24 -10 41 -28 28 -35 25 -35
-17z"/>
<path d="M4744 1612 c-18 -12 -22 -50 -8 -71 8 -11 33 -25 54 -31 30 -8 40
-16 40 -32 0 -17 2 -18 15 -8 20 17 19 64 -1 81 -9 8 -33 19 -53 25 -24 7 -36
16 -35 27 2 19 2 19 -12 9z"/>
<path d="M4836 1605 c4 -8 8 -15 10 -15 2 0 4 7 4 15 0 8 -4 15 -10 15 -5 0
-7 -7 -4 -15z"/>
<path d="M3214 1483 l-31 -32 31 6 c39 7 38 7 34 35 -3 23 -3 23 -34 -9z"/>
<path d="M4723 1480 c-1 -14 4 -20 19 -20 20 0 21 1 3 20 -10 11 -19 20 -19
20 -1 0 -2 -9 -3 -20z"/>
<path d="M4783 1453 c9 -2 23 -2 30 0 6 3 -1 5 -18 5 -16 0 -22 -2 -12 -5z"/>
<path d="M920 1230 c-13 -8 -15 -48 -15 -257 0 -136 3 -256 7 -265 7 -17 36
-18 412 -18 359 0 405 2 410 16 3 9 6 127 6 263 0 179 -3 250 -12 259 -15 15
-784 17 -808 2z m760 -24 c0 -4 -161 -121 -286 -209 -26 -18 -51 -36 -58 -41
-8 -5 -74 36 -195 123 l-184 131 362 0 c198 0 361 -2 361 -4z m-589 -123 l151
-107 -43 -38 c-53 -45 -31 -52 28 -9 35 25 42 27 58 15 22 -16 61 -18 70 -4
12 20 38 9 127 -55 50 -36 95 -65 100 -65 24 0 -1 26 -82 82 -49 35 -89 66
-90 70 0 3 62 50 138 104 75 53 143 101 150 107 9 7 12 -40 12 -232 l0 -241
-390 0 -390 0 0 240 c0 132 2 240 5 240 3 0 73 -48 156 -107z"/>
<path d="M1070 845 c-7 -9 -10 -18 -7 -21 7 -8 47 14 47 26 0 15 -26 12 -40
-5z"/>
<path d="M2957 1113 c-12 -11 -8 -40 7 -52 22 -18 46 -2 46 30 0 24 -4 29 -23
29 -13 0 -27 -3 -30 -7z"/>
<path d="M4477 1113 c-12 -11 -8 -40 7 -52 22 -18 46 -2 46 30 0 24 -4 29 -23
29 -13 0 -27 -3 -30 -7z"/>
<path d="M6037 1114 c-12 -12 -8 -41 8 -54 20 -17 47 5 43 34 -3 21 -37 34
-51 20z"/>
<path d="M6125 1094 c-12 -5 -7 -255 5 -267 4 -5 17 -6 29 -2 20 6 21 13 21
121 0 137 -11 167 -55 148z"/>
<path d="M4577 1084 c-4 -4 -7 -18 -7 -31 0 -14 -5 -34 -11 -45 -7 -13 -8 -23
-1 -27 5 -3 11 -35 14 -70 3 -47 9 -67 23 -77 22 -16 34 -17 55 -4 13 8 13 13
-3 39 -24 41 -23 97 3 104 27 7 27 47 1 47 -15 0 -21 8 -23 33 -2 23 -8 33
-23 35 -12 2 -24 0 -28 -4z"/>
<path d="M5218 1024 c-78 -42 -89 -202 -18 -239 35 -18 72 -19 88 -3 24 24 13
36 -26 31 -28 -4 -41 0 -54 14 -53 58 -3 173 74 173 48 0 72 -21 72 -61 0 -43
-11 -72 -24 -64 -6 4 -8 21 -4 41 12 63 -44 87 -91 39 -49 -48 -22 -145 33
-117 9 5 31 8 47 5 71 -11 104 118 45 177 -24 24 -101 27 -142 4z m64 -124
c-5 -32 -19 -40 -28 -16 -7 17 14 59 25 52 4 -3 6 -19 3 -36z"/>
<path d="M1869 1023 c-4 -34 4 -190 11 -196 4 -5 17 -6 28 -3 18 6 20 14 17
76 -4 72 0 79 36 60 16 -9 21 -7 30 14 7 14 9 32 6 40 -7 19 -38 21 -55 4 -9
-9 -15 -9 -24 0 -13 13 -47 16 -49 5z"/>
<path d="M2051 1015 c-34 -19 -50 -52 -51 -103 0 -74 63 -115 118 -76 22 15
29 34 13 34 -5 0 -22 5 -37 10 l-26 10 33 23 c37 25 48 62 29 97 -12 23 -43
25 -79 5z m37 -62 c2 -11 -4 -26 -13 -33 -13 -11 -15 -8 -15 25 0 39 22 46 28
8z"/>
<path d="M2186 1000 c-14 -17 -26 -39 -26 -49 0 -19 30 -51 47 -51 6 0 16 -6
22 -14 19 -22 -6 -30 -34 -12 -32 21 -35 20 -35 -9 0 -47 71 -61 108 -22 36
38 29 72 -20 104 -31 20 -38 28 -26 31 9 2 26 -2 38 -8 16 -9 21 -8 26 4 12
32 0 51 -37 54 -30 3 -41 -2 -63 -28z"/>
<path d="M2359 1006 c-56 -49 -67 -119 -24 -161 27 -28 42 -30 79 -14 31 15
48 54 48 114 0 80 -49 109 -103 61z m45 -58 c11 -31 0 -78 -18 -78 -16 0 -28
52 -20 86 8 30 26 26 38 -8z"/>
<path d="M2489 1023 c-3 -21 3 -160 7 -175 7 -23 50 -34 68 -19 11 9 19 9 35
-1 34 -21 44 1 42 92 -3 102 -7 112 -40 108 -26 -3 -26 -3 -22 -82 2 -62 0
-77 -11 -74 -8 3 -14 24 -16 59 -4 85 -9 99 -37 99 -14 0 -25 -3 -26 -7z"/>
<path d="M2669 1023 c-1 -5 0 -46 1 -93 2 -88 14 -118 44 -107 13 5 16 22 16
77 0 38 3 70 6 70 3 0 14 -5 25 -10 16 -9 21 -7 30 14 7 14 9 32 6 40 -8 19
-38 21 -56 4 -11 -10 -14 -10 -18 0 -5 13 -52 17 -54 5z"/>
<path d="M2853 1010 c-55 -33 -64 -125 -17 -167 28 -25 46 -28 75 -13 23 13
26 40 4 40 -27 0 -55 38 -55 75 0 39 2 40 31 23 17 -11 22 -10 34 6 10 13 11
24 4 37 -13 24 -36 24 -76 -1z"/>
<path d="M2959 978 c-2 -115 0 -141 10 -151 8 -8 16 -8 28 -1 15 9 17 25 14
100 -1 49 -5 92 -8 96 -2 5 -13 8 -24 8 -16 0 -19 -8 -20 -52z"/>
<path d="M3089 1006 c-56 -49 -67 -119 -24 -161 27 -28 42 -30 79 -14 31 15
49 57 48 115 -2 79 -50 107 -103 60z m45 -58 c11 -32 0 -78 -18 -78 -16 0 -28
43 -22 75 3 11 5 24 5 28 2 17 26 0 35 -25z"/>
<path d="M3268 1015 c-37 -21 -48 -44 -48 -104 0 -42 4 -53 26 -70 33 -26 66
-27 87 -3 23 25 22 29 -11 35 -30 6 -52 41 -52 82 0 29 3 30 30 13 27 -17 61
13 44 40 -15 23 -43 25 -76 7z"/>
<path d="M3403 998 c-39 -42 -49 -85 -29 -132 38 -91 146 -36 146 74 0 87 -61
116 -117 58z m46 -32 c17 -21 10 -91 -9 -91 -11 0 -16 14 -18 53 -3 52 5 64
27 38z"/>
<path d="M3547 1023 c-10 -9 -8 -176 2 -191 5 -8 17 -12 27 -10 16 3 19 14 22
81 2 56 6 77 16 77 19 0 26 -23 26 -90 0 -62 8 -75 40 -65 18 6 20 15 20 82 0
55 3 74 13 71 7 -3 13 -29 15 -70 3 -72 20 -100 50 -82 12 8 15 26 13 85 -1
41 -4 82 -7 91 -7 24 -52 34 -77 19 -14 -9 -22 -10 -30 -2 -15 15 -50 14 -66
-1 -11 -10 -14 -10 -18 0 -5 13 -35 17 -46 5z"/>
<path d="M3825 1024 c-6 -2 -9 -37 -7 -81 4 -110 8 -125 35 -121 20 3 22 9 25
81 2 68 5 78 20 75 14 -3 18 -17 20 -73 3 -77 10 -90 41 -80 19 6 21 14 21 82
0 55 3 74 13 71 7 -3 13 -29 15 -70 3 -72 20 -100 50 -82 12 8 15 26 13 85 -1
41 -4 82 -7 91 -7 24 -52 34 -77 19 -14 -9 -22 -10 -30 -2 -14 14 -50 14 -64
0 -8 -8 -13 -8 -17 0 -7 11 -32 13 -51 5z"/>
<path d="M4107 1024 c-14 -15 -8 -159 9 -182 16 -24 43 -29 61 -11 8 8 16 7
31 -2 38 -24 48 -1 42 103 -5 91 -5 93 -30 93 -24 0 -25 -2 -28 -78 -4 -103
-25 -101 -32 4 -4 65 -7 74 -25 77 -12 2 -24 0 -28 -4z"/>
<path d="M4287 1023 c-4 -3 -7 -46 -7 -93 0 -91 12 -119 45 -106 12 4 15 23
15 81 0 67 2 76 18 73 14 -3 18 -16 20 -70 3 -72 20 -100 49 -82 22 14 19 161
-4 187 -18 19 -53 23 -70 6 -8 -8 -13 -8 -17 0 -8 12 -39 15 -49 4z"/>
<path d="M4476 1008 c-3 -13 -6 -53 -6 -89 0 -75 17 -111 46 -94 14 9 17 25
15 100 -1 49 -5 93 -7 97 -11 17 -42 7 -48 -14z"/>
<path d="M4689 1023 c-5 -35 5 -151 14 -161 6 -8 24 -12 44 -10 26 3 33 1 31
-11 -3 -12 -16 -16 -48 -16 -33 0 -45 -4 -48 -16 -3 -19 24 -29 79 -29 56 0
73 26 78 121 4 108 -2 131 -37 127 -27 -3 -27 -4 -24 -70 3 -57 1 -68 -12 -68
-17 0 -24 22 -28 90 -3 38 -6 45 -25 48 -13 2 -23 0 -24 -5z"/>
<path d="M4878 1019 c-10 -5 -18 -21 -18 -34 0 -20 5 -23 28 -22 41 3 43 -39
2 -78 -16 -16 -30 -37 -30 -47 0 -17 7 -19 63 -16 56 3 62 5 65 26 3 18 -1 22
-22 22 l-25 0 24 36 c14 20 25 47 25 60 0 50 -66 81 -112 53z"/>
<path d="M5028 1019 c-10 -5 -18 -21 -18 -35 0 -14 4 -23 10 -19 18 11 50 -6
50 -25 0 -11 -13 -35 -30 -53 -48 -55 -42 -69 33 -65 56 3 62 5 65 26 3 18 -1
22 -23 22 l-26 0 26 37 c14 21 25 48 25 60 0 49 -66 79 -112 52z"/>
<path d="M5446 996 c-38 -36 -46 -70 -26 -121 9 -24 15 -27 46 -23 27 3 34 1
32 -11 -2 -10 -16 -17 -36 -19 -36 -4 -40 -13 -16 -36 21 -22 57 -20 85 3 22
17 24 29 28 111 2 76 0 94 -15 111 -25 28 -58 23 -98 -15z m52 -69 c3 -39 0
-46 -12 -41 -11 4 -16 20 -16 51 0 61 24 52 28 -10z"/>
<path d="M5589 1023 c-5 -28 4 -190 11 -196 4 -5 18 -6 30 -2 20 6 21 12 18
78 -2 59 0 72 12 72 11 0 16 -14 18 -55 4 -86 9 -102 35 -98 20 3 22 9 25 81
2 56 6 77 16 77 19 0 26 -23 26 -90 0 -62 8 -75 39 -65 16 5 18 15 14 92 -2
47 -8 92 -14 100 -14 16 -51 17 -67 1 -9 -9 -15 -9 -24 0 -15 15 -60 16 -75 1
-8 -8 -13 -8 -17 0 -8 12 -45 15 -47 4z"/>
<path d="M5892 1013 c-34 -29 -32 -46 7 -47 46 -1 50 -21 7 -36 -38 -12 -51
-37 -42 -75 7 -28 41 -42 61 -25 10 8 18 8 33 -1 37 -23 48 0 42 91 -4 66 -9
84 -24 96 -27 19 -59 18 -84 -3z m48 -118 c0 -14 -6 -25 -13 -25 -21 0 -27 11
-16 31 14 27 29 23 29 -6z"/>
<path d="M6030 936 c0 -97 11 -125 45 -112 12 4 15 24 15 90 0 101 -5 116 -36
116 -24 0 -24 -2 -24 -94z"/>
<path d="M6351 1015 c-34 -19 -50 -52 -51 -103 0 -72 71 -120 114 -76 22 22
20 27 -17 44 -28 13 -32 21 -35 58 -3 41 -2 43 17 33 11 -6 24 -11 30 -11 16
0 24 40 11 55 -15 18 -37 18 -69 0z"/>
<path d="M6485 996 c-30 -30 -35 -41 -35 -81 0 -35 6 -51 25 -70 32 -33 60
-31 96 4 25 25 29 37 29 83 0 99 -50 127 -115 64z m61 -52 c8 -32 -3 -74 -20
-74 -23 0 -35 56 -20 94 8 21 33 9 40 -20z"/>
<path d="M6629 1023 c-5 -28 4 -190 11 -196 4 -5 17 -6 28 -3 19 6 20 13 16
82 -4 69 -3 75 13 72 14 -2 19 -14 21 -58 4 -86 9 -102 35 -98 20 3 22 9 25
81 2 56 6 77 16 77 19 0 26 -23 26 -90 0 -62 8 -75 39 -65 16 5 18 15 14 92
-2 47 -8 92 -14 100 -14 16 -51 17 -67 1 -9 -9 -15 -9 -24 0 -15 15 -60 16
-75 1 -8 -8 -13 -8 -17 0 -8 12 -45 15 -47 4z"/>
<path d="M6214 865 c-9 -23 3 -45 24 -45 25 0 44 23 36 44 -8 20 -53 21 -60 1z"/>
</g>
</svg>
